<svg xmlns="http://www.w3.org/2000/svg" version="1.1" xmlns:xlink="http://www.w3.org/1999/xlink" xmlns:svgjs="http://svgjs.dev/svgjs" width="1000" height="196" viewBox="0 0 1000 196"><g transform="matrix(1,0,0,1,-1.2230962970235737,-0.21886666666665633)"><svg viewBox="0 0 366 72" data-background-color="#ffffff" preserveAspectRatio="xMidYMid meet" height="196" width="1000" xmlns="http://www.w3.org/2000/svg" xmlns:xlink="http://www.w3.org/1999/xlink"><g id="tight-bounds" transform="matrix(1,0,0,1,0.4476532447106365,0.08039999999999736)"><svg viewBox="0 0 365.7136773708522 71.83919999999999" height="71.83919999999999" width="365.7136773708522"><g><svg viewBox="0 0 365.7136773708522 71.83919999999999" height="71.83919999999999" width="365.7136773708522"><g><svg viewBox="0 0 365.7136773708522 71.83919999999999" height="71.83919999999999" width="365.7136773708522"><g id="textblocktransform"><svg viewBox="0 0 365.7136773708522 71.83919999999999" height="71.83919999999999" width="365.7136773708522" id="textblock"><g><svg viewBox="0 0 365.7136773708522 71.83919999999999" height="71.83919999999999" width="365.7136773708522"><g><svg><g></g><g></g></svg></g><g><svg><g><svg></svg></g><g></g></svg></g><g id="text-0"><svg viewBox="0 0 365.7136773708522 71.83919999999999" height="71.83919999999999" width="365.7136773708522"><g transform="matrix(1,0,0,1,0,0)"><svg width="288.93524888888885" viewBox="0.16 -30.96 178.18 44.4" height="71.83919999999999" data-palette-color="#ee3e38"><path d="M1.96 1.64L1.96 1.64Q1.96 4.6 5.08 5.2L5.08 5.2Q5.68 5.32 6.44 5.32L6.44 5.32Q11.44 5.32 14.36 2.1 17.28-1.12 17.28-6L17.28-6Q17.28-7.92 16.58-9.54 15.88-11.16 14.84-12.22 13.8-13.28 12.58-14.36 11.36-15.44 10.32-16.32 9.28-17.2 8.58-18.44 7.88-19.68 7.88-21.08L7.88-21.08Q7.88-24.76 11.18-27.86 14.48-30.96 18.28-30.96L18.28-30.96Q19.04-30.96 19.4-30.4 19.76-29.84 19.76-29.28L19.76-29.28 19.72-28.76Q19.44-28.92 18.32-28.92L18.32-28.92Q15.76-28.92 13.36-26.52 10.96-24.12 10.96-20.96L10.96-20.96Q10.96-19.68 11.66-18.46 12.36-17.24 13.4-16.32 14.44-15.4 15.64-14.26 16.84-13.12 17.88-12.02 18.92-10.92 19.62-9.34 20.32-7.76 20.32-6L20.32-6Q20.32-1.16 16.32 2.6 12.32 6.36 6.44 6.36L6.44 6.36Q1.48 6.36 0.16 3.16L0.16 3.16Q-0.88 0.52 0.96-2.68 2.8-5.88 6.28-7L6.28-7Q7.56-7.4 8.56-7.4 9.56-7.4 9.94-7.06 10.32-6.72 10.44-6L10.44-6Q6.68-6 4-2.96L4-2.96Q1.96-0.68 1.96 1.64ZM20.52-20.48L20.52-20.48Q20.52-20.28 20.14-20.28 19.76-20.28 19.44-20.44 19.12-20.6 19.12-20.88L19.12-20.88Q19.12-24.96 20.04-27.44 20.96-29.92 22.48-29.92L22.48-29.92Q22.88-29.92 23.16-29.64 23.44-29.36 23.44-28.92L23.44-28.92Q21.64-27.12 20.84-23.52L20.84-23.52Q20.52-22.08 20.52-20.48ZM26.48-17.32L26.48-17.32Q24.92-17.32 24.92-18.6L24.92-18.6Q24.92-19.08 25.32-19.2L25.32-19.2Q25.36-19.24 25.44-19.24L25.44-19.24Q25.68-18.96 26.34-18.96 27-18.96 28.44-19.04L28.44-19.04Q30.32-24.12 32.04-24.12L32.04-24.12Q32.72-24.12 32.72-23.36L32.72-23.36Q32.08-21.76 31.28-19.24L31.28-19.24Q35.24-19.68 36.44-19.68L36.44-19.68Q36.76-19.68 36.76-19.36L36.76-19.36Q36.76-18.72 35.92-18.72L35.92-18.72Q35.48-18.72 30.84-17.88L30.84-17.88Q27.68-7.88 27.68-1.68 27.68 4.52 30.16 4.52L30.16 4.52Q31.16 4.52 32.04 3.66 32.92 2.8 33.28 1.96L33.28 1.96Q33.44 1.52 33.96 1.72L33.96 1.72Q34.2 1.8 34.12 1.96L34.12 1.96Q33.88 2.48 33.52 3.16 33.16 3.84 32.12 4.84 31.08 5.84 30 5.84L30 5.84Q25.24 5.84 25.24-2.44L25.24-2.44Q25.24-9.44 27.84-17.4L27.84-17.4Q27.28-17.32 26.48-17.32ZM48.4-11.48L48.4-11.48Q46.88-11.48 46.88-14.8L46.88-14.8Q46.88-16.68 47.6-18.32L47.6-18.32Q44.88-15.96 41.52-9.54 38.16-3.12 38.16-1.16L38.16-1.16Q38.16-0.68 37.52-0.68L37.52-0.68Q36.36-0.68 36.36-3.84L36.36-3.84Q36.36-9.8 37.56-14.64 38.76-19.48 40.48-19.48L40.48-19.48Q41.24-19.48 41.24-18.6L41.24-18.6Q39.4-12.76 38.6-6.64L38.6-6.64 38.88-6.64Q42.12-14.12 46.04-18.32L46.04-18.32Q48.28-20.72 50.12-20.72L50.12-20.72Q50.52-20.72 50.78-20.48 51.04-20.24 51.04-19.88L51.04-19.88Q50.76-19.6 50.36-19.04 49.96-18.48 49.28-16.38 48.6-14.28 48.6-11.8L48.6-11.8Q48.6-11.48 48.4-11.48ZM54.35 0L54.35 0Q51.07 0 51.07-5.16L51.07-5.16Q51.07-8.24 52.59-11.92L52.59-11.92Q54.71-17.08 58.15-18.96L58.15-18.96Q59.63-19.76 60.91-19.76 62.19-19.76 62.93-19.2 63.67-18.64 63.87-18.08L63.87-18.08 64.11-17.56Q63.99-16.88 63.43-16.88L63.43-16.88Q62.79-16.88 62.69-17.18 62.59-17.48 62.47-17.7 62.35-17.92 61.91-18.3 61.47-18.68 60.91-18.68L60.91-18.68Q58.31-18.68 56.19-14L56.19-14Q53.79-8.6 53.79-3.84L53.79-3.84Q53.79-1.44 54.75-1.44L54.75-1.44Q55.51-1.44 56.89-3.14 58.27-4.84 59.79-7.4L59.79-7.4Q62.43-11.8 64.07-15.04L64.07-15.04Q65.43-17.92 66.87-17.92L66.87-17.92Q67.63-17.92 67.63-17L67.63-17Q67.27-16.24 66.71-14.84 66.15-13.44 65.23-9.28 64.31-5.12 64.31-1 64.31 3.12 65.55 3.12L65.55 3.12Q66.03 3.12 66.43 2.7 66.83 2.28 67.15 1.44L67.15 1.44Q67.27 1 67.71 1L67.71 1Q67.87 1 67.95 1.12 68.03 1.24 67.95 1.52 67.87 1.8 67.67 2.3 67.47 2.8 66.81 3.64 66.15 4.48 65.43 4.48L65.43 4.48Q63.75 4.48 62.85 2.28 61.95 0.08 61.95-2.92 61.95-5.92 62.39-8.68L62.39-8.68 61.99-8.68Q56.91 0 54.35 0ZM91.79-18.12L91.79-18.12Q92.95-17.24 94.01-17.24 95.07-17.24 95.51-17.52L95.51-17.52Q95.51-17 95.05-16.54 94.59-16.08 93.73-16.08 92.87-16.08 91.87-16.48L91.87-16.48Q91.79-12.72 90.63-8.78 89.47-4.84 87.63-2.18 85.79 0.48 83.99 0.48 82.19 0.48 81.23-0.92L81.23-0.92Q80.23-2.48 80.23-5.36L80.23-5.36Q80.23-7 80.43-8.88L80.43-8.88Q75.47 0 72.81 0 70.15 0 70.15-4.48L70.15-4.48Q70.15-9.12 72.43-14.4L72.43-14.4Q74.35-18.6 75.95-18.8L75.95-18.8Q76.71-18.8 76.71-17.96L76.71-17.96Q76.23-16.8 75.51-14.98 74.79-13.16 73.61-9.16 72.43-5.16 72.43-3.26 72.43-1.36 73.27-1.36L73.27-1.36Q74.31-1.36 76.53-4.72 78.75-8.08 80.43-11.44L80.43-11.44 82.15-14.76Q83.27-17 84.15-17 85.03-17 85.03-16.16L85.03-16.16Q82.59-7.8 82.59-3.08L82.59-3.08Q82.59-0.88 83.87-0.88L83.87-0.88Q85.31-0.88 86.89-3.26 88.47-5.64 89.53-9.46 90.59-13.28 90.59-17L90.59-17 90.59-17.24Q89.43-18.08 88.71-19.24 87.99-20.4 87.99-20.98 87.99-21.56 88.51-22.04 89.03-22.52 89.63-22.52L89.63-22.52Q90.39-22.52 90.99-21.18 91.59-19.84 91.79-18.12ZM102.91-3.68L102.91-3.68Q102.91-1.28 104.19-1.28L104.19-1.28Q105.83-1.28 107.79-5.68L107.79-5.68Q110.07-10.72 110.07-15.12L110.07-15.12Q110.07-18.12 108.51-18.12 106.95-18.12 105.01-15.58 103.07-13.04 101.63-9.88 100.19-6.72 99.17-4.18 98.15-1.64 98.15-1.36L98.15-1.36Q98.15-0.76 97.55-0.76L97.55-0.76Q96.35-0.76 96.35-3.96L96.35-3.96Q96.35-10.32 97.63-16.74 98.91-23.16 100.67-27.02 102.43-30.88 103.95-30.88L103.95-30.88Q104.59-30.88 104.59-30.24L104.59-30.24Q102.47-25.56 100.93-19 99.39-12.44 98.63-6.56L98.63-6.56 98.91-6.56Q100.75-11.24 103.11-14.96L103.11-14.96Q104.43-17.04 105.93-18.26 107.43-19.48 108.83-19.48L108.83-19.48Q111.67-19.48 112.35-15.8L112.35-15.8Q112.59-14.72 112.59-13.52L112.59-13.52Q112.59-10.56 111.31-7.08L111.31-7.08Q109.51-2.12 106.59-0.56L106.59-0.56Q105.59 0 104.51 0L104.51 0Q101.79 0 101.79-3.6L101.79-3.6Q101.79-5.52 102.85-8.02 103.91-10.52 105.63-11.72L105.63-11.72Q105.99-11.92 106.23-11.56L106.23-11.56Q106.27-11.36 106.19-11.28L106.19-11.28Q104.67-10.08 103.79-7.76 102.91-5.44 102.91-3.68ZM125.75-19.4L125.75-19.4Q128.78-19.4 128.78-15.84L128.78-15.84Q128.78-13.8 127.43-11.56L127.43-11.56Q125.11-7.84 121.27-7.84L121.27-7.84Q120.67-7.84 120.27-8.04 119.87-8.24 119.67-8.64L119.67-8.64Q122.51-8.64 124.87-11.92L124.87-11.92Q126.79-14.56 126.79-16.76L126.79-16.76Q126.79-18.4 125.47-18.4L125.47-18.4Q122.83-18.4 120.55-14.28L120.55-14.28Q118.11-9.8 118.11-5.08L118.11-5.08Q118.11-1.08 120.39-0.28L120.39-0.28Q120.83-0.12 121.51-0.12 122.19-0.12 122.95-0.46 123.71-0.8 124.23-1.28L124.23-1.28Q125.27-2.24 125.95-3.4L125.95-3.4Q126.11-3.72 126.55-3.72L126.55-3.72Q127.27-3.72 127.23-3.48L127.23-3.48Q127.11-3.04 126.33-2 125.55-0.96 124.89-0.34 124.23 0.28 123.17 0.78 122.11 1.28 121.03 1.28L121.03 1.28Q116.79 1.28 115.63-2.72L115.63-2.72Q115.27-4.08 115.27-5.52L115.27-5.52Q115.27-8.2 116.51-11.36L116.51-11.36Q118.47-16.16 121.91-18.28L121.91-18.28Q123.79-19.4 125.75-19.4ZM143.58-11.48L143.58-11.48Q142.06-11.48 142.06-14.8L142.06-14.8Q142.06-16.68 142.78-18.32L142.78-18.32Q140.06-15.96 136.7-9.54 133.34-3.12 133.34-1.16L133.34-1.16Q133.34-0.68 132.7-0.68L132.7-0.68Q131.54-0.68 131.54-3.84L131.54-3.84Q131.54-9.8 132.74-14.64 133.94-19.48 135.66-19.48L135.66-19.48Q136.42-19.48 136.42-18.6L136.42-18.6Q134.58-12.76 133.78-6.64L133.78-6.64 134.06-6.64Q137.3-14.12 141.22-18.32L141.22-18.32Q143.46-20.72 145.3-20.72L145.3-20.72Q145.7-20.72 145.96-20.48 146.22-20.24 146.22-19.88L146.22-19.88Q145.94-19.6 145.54-19.04 145.14-18.48 144.46-16.38 143.78-14.28 143.78-11.8L143.78-11.8Q143.78-11.48 143.58-11.48ZM158.9-11.48L158.9-11.48Q157.38-11.48 157.38-14.8L157.38-14.8Q157.38-16.68 158.1-18.32L158.1-18.32Q155.38-15.96 152.02-9.54 148.66-3.12 148.66-1.16L148.66-1.16Q148.66-0.68 148.02-0.68L148.02-0.68Q146.86-0.68 146.86-3.84L146.86-3.84Q146.86-9.8 148.06-14.64 149.26-19.48 150.98-19.48L150.98-19.48Q151.74-19.48 151.74-18.6L151.74-18.6Q149.9-12.76 149.1-6.64L149.1-6.64 149.38-6.64Q152.62-14.12 156.54-18.32L156.54-18.32Q158.78-20.72 160.62-20.72L160.62-20.72Q161.02-20.72 161.28-20.48 161.54-20.24 161.54-19.88L161.54-19.88Q161.26-19.6 160.86-19.04 160.46-18.48 159.78-16.38 159.1-14.28 159.1-11.8L159.1-11.8Q159.1-11.48 158.9-11.48ZM162.58 12.52L162.58 12.52Q166.18 12.52 168.22 9.12L168.22 9.12Q169.98 6.12 170.94 1.64L170.94 1.64Q163.7 1.8 159.82 7.16L159.82 7.16Q159.58 7.52 159.06 7.28L159.06 7.28Q158.78 7.12 158.9 6.88L158.9 6.88Q160.62 4.28 163.7 2.46 166.78 0.64 171.18 0.48L171.18 0.48Q171.62-1.52 172.02-4.2 172.42-6.88 172.94-9.4L172.94-9.4 172.58-9.4Q167.38-0.16 164.66-0.16L164.66-0.16Q161.62-0.16 161.62-4.84 161.62-9.52 163.62-14.26 165.62-19 167.26-19.36L167.26-19.36 167.5-19.4Q168.18-19.4 168.18-18.52L168.18-18.52Q167.74-17.44 167.06-15.7 166.38-13.96 165.26-9.98 164.14-6 164.14-3.78 164.14-1.56 165.1-1.56L165.1-1.56Q166.22-1.56 168.7-5.44L168.7-5.44Q172.34-11.12 175.02-16.96L175.02-16.96Q176.18-19.4 177.5-19.4L177.5-19.4Q178.34-19.4 178.34-18.48L178.34-18.48Q177.58-17.08 176.5-13.24 175.42-9.4 174.74-5.5 174.06-1.6 173.58 0.6L173.58 0.6Q176.62 1.12 177.1 3.24L177.1 3.24Q177.18 3.6 177.18 4.22 177.18 4.84 176.7 5.3 176.22 5.76 175.86 5.76L175.86 5.76Q175.94 5.48 175.9 4.78 175.86 4.08 175.64 3.6 175.42 3.12 174.82 2.6 174.22 2.08 173.26 1.84L173.26 1.84Q170.18 13.44 162.58 13.44L162.58 13.44Q159.3 13.44 158.22 11.12L158.22 11.12Q158.18 11 158.18 10.92L158.18 10.92Q158.18 10.68 158.6 10.62 159.02 10.56 159.22 10.88L159.22 10.88Q159.94 12.52 162.58 12.52Z" opacity="1" transform="matrix(1,0,0,1,0,0)" fill="#ee3e38" class="wordmark-text-0" data-fill-palette-color="primary"></path></svg></g><g><svg version="1.1" xmlns="http://www.w3.org/2000/svg" xmlns:xlink="http://www.w3.org/1999/xlink" x="305.89604888888886" y="0" viewBox="0 0 83.26600029226856 100" enable-background="new 0 0 83.266 100" xml:space="preserve" width="59.81762848196339" height="71.83919999999999" class="icon-z$-0" data-fill-palette-color="accent" id="z$-0"><path fill="#ee3e38" d="M66.885 25.314c3.464-4.216 6.329-15.24 6.452-15.713 0.07-0.263-0.075-0.553-0.33-0.642-0.259-0.086-0.539 0.035-0.647 0.285-3.204 7.343-16.072 13.185-19.935 14.798 1.084-3.68 2.297-13.288 2.449-14.522 0.034-0.271-0.146-0.517-0.415-0.568-0.271-0.051-0.531 0.122-0.603 0.385-1.448 5.332-6.919 10.54-10.193 13.274C43.481 16.178 42.417 0 36.332 0c-1.149 0-2.082 0.932-2.082 2.081 0 1.062 0.795 1.938 1.823 2.065 1.146 1.011 3.189 7.35 3.441 18.525-3.257-2.699-8.844-7.958-10.312-13.354-0.071-0.263-0.333-0.424-0.602-0.374-0.269 0.053-0.45 0.307-0.416 0.578 0.153 1.235 1.366 10.85 2.45 14.531-3.861-1.612-16.729-7.439-19.934-14.787-0.108-0.249-0.391-0.348-0.647-0.261C9.799 9.092 9.654 9.408 9.722 9.67c0.125 0.476 3.002 11.473 6.471 15.667C10.053 26.232 0 29.901 0 44.359 0 65.168 19.313 100 41.646 100c22.335 0 41.62-34.815 41.62-55.625C83.268 29.765 73.005 26.166 66.885 25.314zM12.487 44.733c-2.081 0-2.488-1.878-2.162-3.125 0.349-1.327 2.162-4.269 2.162-4.269s1.813 2.941 2.161 4.269C14.975 42.855 14.29 44.733 12.487 44.733zM22.545 59.647c-2.081 0-2.488-1.876-2.161-3.126 0.347-1.326 2.161-4.268 2.161-4.268s1.814 2.941 2.161 4.268C25.033 57.771 24.348 59.647 22.545 59.647zM31.563 74.908c-2.081 0-2.487-1.878-2.161-3.126 0.347-1.327 2.161-4.269 2.161-4.269s1.813 2.941 2.161 4.269C34.049 73.03 33.364 74.908 31.563 74.908zM31.909 44.733c-2.081 0-2.488-1.878-2.162-3.125 0.347-1.327 2.162-4.269 2.162-4.269s1.813 2.941 2.161 4.269C34.397 42.855 33.712 44.733 31.909 44.733zM41.622 89.474c-2.082 0-2.488-1.877-2.162-3.124 0.348-1.328 2.162-4.27 2.162-4.27s1.813 2.941 2.161 4.27C44.109 87.597 43.423 89.474 41.622 89.474zM41.968 59.647c-2.081 0-2.488-1.876-2.161-3.126 0.347-1.326 2.161-4.268 2.161-4.268s1.812 2.941 2.162 4.268C44.456 57.771 43.77 59.647 41.968 59.647zM50.986 74.908c-2.082 0-2.487-1.878-2.162-3.126 0.348-1.327 2.162-4.269 2.162-4.269s1.813 2.941 2.161 4.269C53.472 73.03 52.789 74.908 50.986 74.908zM51.332 44.733c-2.08 0-2.485-1.878-2.16-3.125 0.347-1.327 2.16-4.269 2.16-4.269s1.813 2.941 2.162 4.269C53.819 42.855 53.135 44.733 51.332 44.733zM61.391 59.647c-2.081 0-2.487-1.876-2.161-3.126 0.348-1.326 2.161-4.268 2.161-4.268s1.813 2.941 2.16 4.268C63.877 57.771 63.193 59.647 61.391 59.647zM70.754 44.733c-2.08 0-2.486-1.878-2.16-3.125 0.347-1.327 2.16-4.269 2.16-4.269s1.813 2.941 2.163 4.269C73.244 42.855 72.558 44.733 70.754 44.733z" data-fill-palette-color="accent"></path></svg></g></svg></g></svg></g></svg></g></svg></g></svg></g><defs></defs></svg><rect width="365.7136773708522" height="71.83919999999999" fill="none" stroke="none" visibility="hidden"></rect></g></svg></g></svg>